<?xml version="1.0" encoding="UTF-8" standalone="no"?>
<!-- Created with Inkscape (http://www.inkscape.org/) -->

<svg
   xmlns:dc="http://purl.org/dc/elements/1.1/"
   xmlns:cc="http://creativecommons.org/ns#"
   xmlns:rdf="http://www.w3.org/1999/02/22-rdf-syntax-ns#"
   xmlns:svg="http://www.w3.org/2000/svg"
   xmlns="http://www.w3.org/2000/svg"
   xmlns:sodipodi="http://sodipodi.sourceforge.net/DTD/sodipodi-0.dtd"
   xmlns:inkscape="http://www.inkscape.org/namespaces/inkscape"
   width="259.91055"
   height="71.528931"
   id="svg2"
   version="1.1"
   inkscape:version="0.48.5 r10040"
   sodipodi:docname="New document 1">
  <defs
     id="defs4" />
  <sodipodi:namedview
     id="base"
     pagecolor="#ffffff"
     bordercolor="#666666"
     borderopacity="1.0"
     inkscape:pageopacity="0.0"
     inkscape:pageshadow="2"
     inkscape:zoom="0.98994949"
     inkscape:cx="150.33867"
     inkscape:cy="-12.599494"
     inkscape:document-units="px"
     inkscape:current-layer="layer1"
     showgrid="false"
     fit-margin-top="0"
     fit-margin-left="0"
     fit-margin-right="0"
     fit-margin-bottom="0"
     inkscape:window-width="463"
     inkscape:window-height="423"
     inkscape:window-x="688"
     inkscape:window-y="300"
     inkscape:window-maximized="0" />
  <metadata
     id="metadata7">
    <rdf:RDF>
      <cc:Work
         rdf:about="">
        <dc:format>image/svg+xml</dc:format>
        <dc:type
           rdf:resource="http://purl.org/dc/dcmitype/StillImage" />
        <dc:title></dc:title>
      </cc:Work>
    </rdf:RDF>
  </metadata>
  <g
     inkscape:label="Layer 1"
     inkscape:groupmode="layer"
     id="layer1"
     transform="translate(-834.95223,-650.88524)">
    <g
       id="g3064"
       transform="translate(-25.253817,-105.56094)">
      <path
         style="fill:#1a4fad"
         d="m 923.70605,827.43663 c -5.26396,-1.39297 -9.24857,-3.98558 -11.34915,-7.38437 -2.68392,-4.34268 -4.3918,-15.42382 -3.56118,-23.10573 1.64742,-15.23587 7.60857,-20.59444 22.91033,-20.59444 17.16868,0 22.77865,6.41772 22.83143,26.1188 0.0252,9.42282 -0.26026,11.22521 -2.45532,15.5 -3.38246,6.58722 -8.48192,9.36493 -18.13071,9.87591 -3.98497,0.21103 -8.5954,0.0264 -10.2454,-0.41017 z m 14.02794,-8.32314 c 4.38606,-1.99843 5.47206,-5.53754 5.47206,-17.83258 0,-10.96447 -0.0426,-11.16917 -2.92308,-14.04966 -2.54142,-2.54143 -3.66126,-2.92308 -8.57692,-2.92308 -4.91566,0 -6.0355,0.38165 -8.57692,2.92308 -2.89192,2.89191 -2.9227,3.04383 -2.88765,14.25 0.038,12.15093 0.90199,15.11869 5.07464,17.43141 3.00602,1.66611 8.98954,1.76288 12.41787,0.20082 z m 35.37715,8.32815 c -10.30472,-2.20208 -14.12784,-7.90781 -14.7444,-22.00495 -0.51774,-11.83769 1.02838,-19.13533 5.01645,-23.6775 3.85083,-4.38585 8.87457,-5.73076 19.77414,-5.29376 l 8.54872,0.34274 0.5,-9.49895 0.5,-9.49894 4.34127,-0.91239 c 3.39798,-0.71415 4.53538,-0.60574 5.23468,0.49894 0.4914,0.77624 0.8937,15.13634 0.894,31.91134 4e-4,22.58268 -0.3273,31.14896 -1.2625,33 -0.7634,1.51104 -2.83435,3.01879 -5.23523,3.81145 -4.84219,1.59868 -18.64834,2.37315 -23.56713,1.32202 z m 18.20567,-9.27844 c 1.37982,-2.17757 1.10324,-31.24103 -0.31076,-32.65503 -1.50732,-1.50732 -14.19016,-1.59674 -16.9504,-0.11951 -3.30102,1.76665 -4.84974,7.0815 -4.84805,16.63739 0.002,9.84472 1.75699,14.83912 5.99845,17.06811 3.19232,1.67764 14.88598,1.00193 16.11076,-0.93096 z m 31.58109,8.78446 c -10.7446,-3.03879 -15.3144,-11.94834 -14.4643,-28.20084 0.8723,-16.67553 6.6091,-22.45938 22.2343,-22.41669 16.5328,0.0452 23.0686,6.99635 22.3333,23.75251 l -0.2951,6.72553 -16.291,0.27497 c -17.8979,0.30209 -18.558,0.55415 -16.2218,6.19424 1.9619,4.73636 5.547,6.46033 13.5128,6.49783 3.85,0.0181 8.9123,-0.34407 11.2497,-0.80489 3.9078,-0.77044 4.3196,-0.64974 5.1186,1.5 0.4779,1.28582 0.6669,2.86891 0.4201,3.51797 -1.2784,3.36175 -19.3294,5.29748 -27.5966,2.95937 z m 18.7675,-32.35224 c -0.032,-4.08087 -0.5583,-5.76367 -2.4243,-7.75 -2.0509,-2.18302 -3.2425,-2.53725 -8.535,-2.53725 -5.0953,0 -6.5161,0.38821 -8.2757,2.26123 -2.2221,2.36529 -3.9005,9.53432 -2.8644,12.23449 0.5068,1.3205 2.328,1.52683 11.3717,1.2883 l 10.7684,-0.28402 -0.041,-5.21275 z m -179.88792,31.14132 c -1.32047,-1.32046 -1.57143,-4.66672 -1.57143,-20.95295 0,-12.27482 0.41424,-20.29067 1.12972,-21.86098 0.62135,-1.3637 2.30885,-2.95849 3.75,-3.54396 8.36998,-3.40035 26.46643,-4.14354 32.12028,-1.31913 6.23097,3.11272 6.99668,6.15421 6.99845,27.79845 10e-4,13.48517 -0.34899,19.40054 -1.19845,20.25 -1.55009,1.55009 -7.04991,1.55009 -8.6,0 -0.84482,-0.84482 -1.2,-6.55055 -1.2,-19.27749 0,-22.97422 0.0498,-22.87278 -10.97369,-22.37217 -4.5897,0.20842 -8.39035,0.90689 -9.37317,1.72256 -1.43287,1.18918 -1.65314,3.93971 -1.65314,20.64256 0,16.64974 -0.21512,19.35311 -1.58179,19.87755 -2.79537,1.07268 -6.23206,0.65028 -7.84678,-0.96444 z m 204.62662,-21.08305 c -3.556,-1.77225 -6.2003,-5.84735 -6.1943,-9.54586 0,-1.26481 0.9235,-3.80836 2.0477,-5.65233 1.8805,-3.08437 1.9202,-3.5417 0.4963,-5.71482 -2.1677,-3.30837 -1.9375,-8.66735 0.5059,-11.77358 2.7811,-3.53555 7.9001,-4.84803 17.4464,-4.47312 l 8,0.31419 0,19 0,19 -9.5,0.24557 c -7.1969,0.18603 -10.3005,-0.15338 -12.802,-1.40005 z m 14.6095,-10.09552 0.3075,-4.25 -5.3575,0 c -5.5583,0 -7.7575,1.17044 -7.7575,4.12857 0,3.25819 2.9213,4.99191 7.8712,4.67127 l 4.6288,-0.29984 0.3075,-4.25 z m -0.3075,-15.75 0,-4 -4.3239,-0.31111 c -4.8613,-0.34977 -7.1761,1.01591 -7.1761,4.23356 0,3.41978 2.0423,4.6964 6.9947,4.37234 l 4.5053,-0.29479 0,-4 z m 10.9446,26.21638 c -0.2709,-0.70599 -0.3693,-9.36849 -0.2186,-19.25 l 0.274,-17.96638 8,-0.31419 c 9.5462,-0.37491 14.6652,0.93757 17.4463,4.47312 2.4434,3.10623 2.6736,8.46521 0.5059,11.77358 -1.4239,2.17312 -1.3842,2.63045 0.4963,5.71482 2.4186,3.96706 2.5822,6.92567 0.5955,10.76748 -2.2972,4.44232 -7.0155,6.08519 -17.4766,6.08519 -6.5092,0 -9.2716,-0.36849 -9.6228,-1.28362 z m 18.9839,-7.28781 c 1.8715,-1.87152 2.0323,-4.5677 0.3715,-6.22857 -0.66,-0.66 -3.585,-1.2 -6.5,-1.2 l -5.3,0 0,3.83333 c 0,2.10834 0.3,4.13334 0.6666,4.5 1.3271,1.32711 9.1912,0.66597 10.7619,-0.90476 z m -0.6285,-15.62857 c 1.6351,-1.6351 1.5122,-5.29595 -0.2261,-6.73866 -0.7844,-0.65096 -3.3719,-1.04356 -5.75,-0.87245 -3.9169,0.28182 -4.3545,0.57797 -4.6485,3.14558 -0.5348,4.67017 0.36,5.66553 5.0932,5.66553 2.3822,0 4.8714,-0.54 5.5314,-1.2 z"
         id="path3068"
         inkscape:connector-curvature="0" />
      <path
         style="fill:#404040"
         d="m 925.07773,827.33203 c -5.83622,-1.0381 -8.00492,-2.20506 -11.23752,-6.04679 -3.75829,-4.46647 -4.88779,-10.03114 -4.47629,-22.05325 0.32383,-9.46129 0.64784,-11.03183 3.01325,-14.60622 3.48404,-5.26473 8.59259,-7.63797 17.50327,-8.13133 12.75358,-0.70614 20.79588,3.64455 23.2816,12.59479 0.56807,2.04541 1.03286,7.76894 1.03286,12.71894 0,4.95 -0.46479,10.67353 -1.03286,12.71894 -1.30053,4.68279 -5.44875,9.67313 -9.4093,11.31948 -4.22915,1.758 -13.15235,2.46777 -18.67501,1.48544 z m 15.10688,-9.84857 c 2.31265,-2.31265 2.9553,-4.04412 3.54508,-9.55145 0.83247,-7.77345 -0.005,-15.72101 -2.08043,-19.73366 -1.28948,-2.49358 -6.1509,-4.87903 -9.94321,-4.87903 -3.79231,0 -8.65373,2.38545 -9.94321,4.87903 -2.07502,4.01265 -2.9129,11.96021 -2.08043,19.73366 0.58978,5.50733 1.23243,7.2388 3.54508,9.55145 2.43347,2.43347 3.60781,2.82471 8.47856,2.82471 4.87075,0 6.04509,-0.39124 8.47856,-2.82471 z m 37.02144,10.32005 c -0.825,-0.19919 -3.19712,-0.63932 -5.27138,-0.97807 -5.67823,-0.92733 -10.4212,-5.65197 -12.35633,-12.30858 -2.41451,-8.30563 -1.52859,-23.38966 1.71816,-29.25416 1.32525,-2.39376 3.98455,-5.27529 5.90955,-6.40341 2.94888,-1.72815 5.19271,-2.04811 14.25,-2.032 l 10.75,0.0191 0,-9.23058 0,-9.23058 4.02307,-1.0833 c 2.21269,-0.59581 4.46268,-0.8116 4.99998,-0.47952 0.6034,0.37289 0.9769,12.98199 0.9769,32.97333 0,35.95288 0.2533,34.59533 -6.79495,36.41728 -4.26345,1.10207 -15.98604,2.12621 -18.205,1.59047 z m 13.06574,-8.53052 c 1.78739,-0.95658 1.93426,-2.23813 1.93426,-16.87756 0,-11.6196 -0.33985,-16.12442 -1.275,-16.90052 -1.84565,-1.53176 -10.72099,-2.40995 -14.225,-1.40752 -1.65718,0.47408 -4.00712,2.34839 -5.25,4.18739 -1.95956,2.89941 -2.25,4.61368 -2.25,13.28014 0,10.87886 1.45538,15.69746 5.30255,17.55621 2.86286,1.38317 13.28125,1.49015 15.76319,0.16186 z m 35.83721,8.05625 c -8.0598,-1.4228 -11.9059,-4.1593 -15.4898,-11.02107 -1.4245,-2.72741 -1.8351,-5.81776 -1.86,-14 -0.037,-12.09333 1.1494,-16.38647 5.7157,-20.68798 4.101,-3.86317 8.4689,-5.31202 16.0144,-5.31202 12.5001,0 19.6182,4.65476 21.7155,14.20055 0.6404,2.9147 1.0152,7.77445 0.8328,10.79945 l -0.3315,5.5 -16.8769,0.27475 -16.8768,0.27476 0.5841,3.59927 c 1.1768,7.25175 6.7416,10.00879 18.0842,8.9596 3.8969,-0.36048 8.2104,-0.75732 9.5854,-0.88189 2.1607,-0.19575 2.5,0.18007 2.5,2.76915 0,2.54045 -0.5319,3.16833 -3.5,4.13211 -5.0953,1.65446 -14.8046,2.3276 -20.0971,1.39332 z m 15.8874,-28.27107 c 1.1609,-1.40176 0.2397,-7.98635 -1.5942,-11.39482 -1.204,-2.23785 -5.9179,-4.35518 -9.6961,-4.35518 -4.1735,0 -8.5579,2.21124 -10.0304,5.05876 -1.4986,2.8979 -2.0093,10.0683 -0.803,11.27457 0.3667,0.36667 5.2616,0.66667 10.8776,0.66667 6.9499,0 10.5415,-0.3992 11.2461,-1.25 z m -180.79035,5.45978 c 0,-19.59768 0.18396,-22.06333 1.75,-23.4554 2.65164,-2.35708 8.74028,-3.74125 19.25,-4.37624 11.08871,-0.66996 16.20335,0.63307 19.40449,4.94359 1.91527,2.57902 2.12529,4.41101 2.44171,21.29865 0.1904,10.16231 0.0633,19.60409 -0.28248,20.98174 -0.57477,2.2901 -1.03305,2.4788 -5.34619,2.20134 l -4.71753,-0.30346 -0.27112,-19.11412 c -0.25443,-17.93819 -0.39971,-19.23015 -2.36142,-21 -1.63831,-1.47809 -3.42884,-1.84277 -8.28061,-1.68651 -3.40468,0.10966 -7.39498,0.65738 -8.86734,1.21717 l -2.67701,1.0178 -0.27125,19.78283 -0.27125,19.78283 -4.75,0.30479 -4.75,0.30479 0,-21.8998 z"
         id="path3066"
         inkscape:connector-curvature="0" />
    </g>
  </g>
</svg>
